<svg
        width="100"
        height="100"
        xmlns="http://www.w3.org/2000/svg"
        viewBox="0 0.265 66 50.47"
        fill="#707070">
    <svg
            xmlns="http://www.w3.org/2000/svg"
            width="66"
            height="51"
            viewBox="0.333 0.842 65.156 49.825">
        <path paint-order="stroke fill markers" fill-rule="evenodd" d="M.333 10.176v-.415c0-4.926 3.46-8.919 7.728-8.919h13.2c3.454 0 6.378 2.618 7.367 6.228h8.565c.989-3.61 3.914-6.228 7.366-6.228h13.202c4.267 0 7.728 3.992 7.728 8.919v.415c0 4.926-3.46 8.919-7.728 8.919H44.56c-4.196 0-7.604-3.864-7.715-8.676h-7.867c-.112 4.812-3.52 8.676-7.716 8.676H8.06c-4.267 0-7.727-3.993-7.727-8.919zm55.474 25.617C51.9 44.829 42.75 50.667 32.494 50.667c-10.474 0-19.679-5.868-23.451-14.95a3.05 3.05 0 1 1 5.634-2.338c2.824 6.798 9.817 11.189 17.817 11.189 7.82 0 14.772-4.395 17.714-11.196a3.049 3.049 0 0 1 4.01-1.59 3.05 3.05 0 0 1 1.59 4.01z"/></svg></svg>
